# xmcd
#
# Track frame offsets:
#   150
#   17038
#   35873
#   50324
#   60512
#   79141
#   97394
#   114559
#   133790
#   155280
#   173854
#   194826
#   213885
#   232663
#
# Disc length: 3402 seconds
#
# Revision: 0
# Processed by: cddbd v1.5.2PL0 Copyright (c) Steve Scherf et al.
# Submitted via: uFREEDB ActiveX Control 1.5
#
DISCID=c00d480e
DTITLE=Universal - Romântico
DYEAR=2000
DGENRE=Blues
TTITLE0=01- Luiz Melodia - Codinome Beija Flor
TTITLE1=02- Ivete Sangal0 - Se Eu Não Te Amasse Tanto Ass
TTITLE2=03- Caetano Veloso - Sozinho
TTITLE3=04- Eliana Printes - Só Vou Gostar de Quem Gosta d
TTITLE4=05- Paulo Ricardo - Dois
TTITLE5=06- Roupa Nova - Bem Maior
TTITLE6=07- Cássia Eller - Todo Amor Que Houver Nesta Vida
TTITLE7=08- Wilson Sideral - Bem Que Se Quis
TTITLE8=09- Leila Pinheiro - Como Uma Onda
TTITLE9=10- Tunai - Frisson
TTITLE10=11- Zizi Possi - Haja O Que Houver
TTITLE11=12- Marina Lima - Acontecimentos
TTITLE12=13- Gal Costa - Eternamente
TTITLE13=14- José Augusto - A Minha História
EXTD=
EXTT0=
EXTT1=
EXTT2=
EXTT3=
EXTT4=
EXTT5=
EXTT6=
EXTT7=
EXTT8=
EXTT9=
EXTT10=
EXTT11=
EXTT12=
EXTT13=
PLAYORDER=
